<?xml version="1.0" encoding="UTF-8" standalone="no"?>
<svg xmlns:rdf="http://www.w3.org/1999/02/22-rdf-syntax-ns#" xmlns="http://www.w3.org/2000/svg" enable-background="new 0 0 479.5 500" xml:space="preserve" height="362.34" viewBox="0 0 361.17148 362.34399" width="361.17" version="1.1" y="0px" x="0px" xmlns:cc="http://creativecommons.org/ns#" xmlns:dc="http://purl.org/dc/elements/1.1/"><metadata><rdf:RDF><cc:Work rdf:about=""><dc:format>image/svg+xml</dc:format><dc:type rdf:resource="http://purl.org/dc/dcmitype/StillImage"/><dc:title/></cc:Work></rdf:RDF></metadata><g transform="translate(-56.054 -68.59)"><path fill="#ef7057" d="m75.36 180.44c-31.52 71.802-12.912 157.95 50.536 208.44 75.766 60.28 186.74 46.86 247.86-29.967 55.204-69.38 50.857-166.74-6.303-229.36-1.737 2.8-3.205 5.957-4.399 9.708-3.554 11.175-5.973 17.832-15.475 25.31-6.437 5.063-13.993 8.224-22.261 7.138-9.211-1.209-17.332-6.345-26.623-7.53-8.397-1.072-21.809-0.181-24.956 9.244-2.855 8.55-4.388 16.507-9.505 24.196-5.992 9.003-14.971 16.404-25.382 19.47-9.675 2.85-19.758-1.242-28.466-5.108-12.514-5.556-23.148-10.465-37.241-9.525-12.413 0.829-24.333 7.094-36.713 8.863-26.06 3.723-45.624-11.363-61.077-30.874z"/><path fill="#ef7057" d="m349.71 138.29c2.013-6.671 4.417-12.899 8.042-18.504-3.366-3.143-6.831-6.211-10.498-9.126-75.76-60.277-186.73-46.862-247.86 29.96-6.798 8.541-12.636 17.526-17.642 26.799 8.729 12.202 19.259 23.456 32.988 28.895 22.293 8.832 44.938-7.963 67.65-7.005 11.546 0.488 21.883 5.461 32.16 10.275 14.427 6.761 24.098 6.707 35.78-5.315 11.315-11.646 7.408-30.974 22.94-39.011 8.794-4.552 20.217-5.308 29.815-3.562 8.659 1.576 17.001 6.891 25.76 7.264 11.415 0.49 18.126-11.587 20.871-20.669z"/><path fill="#c95e49" d="m81.754 173.96c-2.312 4.284-4.449 8.625-6.383 13.028 15.443 19.505 35.007 34.588 61.07 30.868 12.381-1.769 24.301-8.037 36.713-8.863 14.091-0.941 24.726 3.967 37.241 9.524 8.707 3.866 18.79 7.958 28.465 5.108 10.411-3.065 19.39-10.467 25.381-19.47 5.115-7.689 6.652-15.647 9.506-24.196 3.15-9.425 16.561-10.316 24.957-9.245 9.288 1.187 17.41 6.319 26.621 7.531 8.265 1.086 15.825-2.075 22.263-7.138 9.501-7.477 11.918-14.134 15.475-25.31 1.191-3.751 2.659-6.908 4.399-9.708-3.074-3.366-6.329-6.61-9.708-9.767-3.624 5.602-6.028 11.833-8.042 18.503-2.745 9.08-9.456 21.157-20.87 20.669-8.761-0.374-17.103-5.689-25.76-7.264-9.597-1.746-21.021-0.99-29.815 3.561-15.532 8.037-11.624 27.366-22.94 39.012-11.682 12.023-21.353 12.073-35.78 5.315-10.276-4.815-20.612-9.788-32.16-10.275-22.715-0.962-45.357 15.836-67.65 7.005-13.73-5.44-24.262-16.694-32.983-28.888z"/><path fill="#fff" d="m81.754 167.43c-2.312 4.283-4.449 8.624-6.383 13.027 15.443 19.506 35.007 34.589 61.07 30.868 12.381-1.769 24.301-8.036 36.713-8.863 14.091-0.941 24.726 3.967 37.241 9.524 8.707 3.866 18.79 7.959 28.465 5.11 10.411-3.067 19.39-10.468 25.381-19.471 5.115-7.69 6.652-15.648 9.506-24.196 3.15-9.426 16.561-10.317 24.957-9.245 9.288 1.186 17.41 6.319 26.621 7.53 8.265 1.086 15.825-2.075 22.263-7.138 9.501-7.476 11.918-14.134 15.475-25.309 1.191-3.752 2.659-6.909 4.399-9.709-3.074-3.366-6.329-6.61-9.708-9.767-3.624 5.604-6.028 11.834-8.042 18.504-2.745 9.079-9.456 21.156-20.87 20.668-8.761-0.373-17.103-5.689-25.76-7.264-9.597-1.746-21.021-0.99-29.815 3.562-15.532 8.037-11.624 27.365-22.94 39.011-11.682 12.023-21.353 12.073-35.78 5.315-10.276-4.814-20.612-9.786-32.16-10.275-22.715-0.961-45.357 15.837-67.65 7.005-13.73-5.439-24.262-16.693-32.983-28.887z"/><path fill="#c95e49" d="m123.2 392.27c-77.515-61.68-89.716-175.79-27.194-254.36 35.054-44.055 87.204-69.32 143.09-69.32 40.746 0 79.086 13.37 110.88 38.664 37.56 29.885 61.072 72.808 66.202 120.86 5.127 48.034-8.724 95.444-39.005 133.5-35.049 44.051-87.204 69.315-143.09 69.315-40.747 0.001-79.087-13.37-110.88-38.663zm-20.38-248.95c-59.534 74.825-47.957 183.45 25.805 242.14 30.234 24.057 66.701 36.772 105.46 36.772 53.223 0 102.9-24.065 136.28-66.031 28.847-36.255 42.044-81.412 37.161-127.16-4.881-45.722-27.243-86.555-62.967-114.98-30.235-24.055-66.7-36.771-105.46-36.771-53.223 0-102.9 24.068-136.28 66.031z"/><path fill="#a34c3b" d="m245.4 372.75c-2.604-2.253-4.403-5.324-4.813-8.219l3.23-0.458c0.3 2.104 1.723 4.483 3.718 6.21 1.257 1.085 3.821 2.839 6.927 2.404 3.098-0.439 5.08-2.845 5.986-4.237 1.436-2.213 2.143-4.893 1.845-6.993l3.232-0.458c0.41 2.891-0.464 6.342-2.341 9.229-2.085 3.212-5.019 5.23-8.261 5.69-0.479 0.069-0.958 0.104-1.439 0.104-2.793-0.001-5.617-1.134-8.084-3.272z"/><path fill="#a34c3b" d="m322.94 284.98c1.686 11.201-2.727 21.155-9.856 22.229-7.129 1.07-14.276-7.143-15.962-18.346-1.687-11.207 2.726-21.158 9.856-22.229 7.129-1.076 14.275 7.138 15.962 18.346z"/><ellipse rx="20.515" transform="matrix(.1488 .9889 -.9889 .1488 455.54 79.411)" ry="13.056" cy="304.31" cx="181.64" fill="#a34c3b"/><circle cy="338.13" cx="164.29" r="8.702" fill="#ff856e"/><circle cy="314.2" cx="336.17" r="8.704" fill="#ff856e"/></g></svg>
